<svg viewBox="0 0 286 70" fill="none" xmlns="http://www.w3.org/2000/svg">
    <path d="M104.2 48.3C105.2 44.3 108.7 42 112.8 42C117.4 42 120.6 44.1 121.2 48.3H104.2ZM112.5 33.7C102 33.7 94.5 41.1 94.5 51.7C94.5 62.3 102.8 69.7 115 69.7C120.4 69.7 125 68.5 127.8 66.5V57.2H127.4C124.6 59.9 120.4 61.4 115.4 61.4C109.5 61.4 105.2 58.8 104.2 54.1H129.9V50.2C129.9 40.1 123.2 33.7 112.5 33.7Z" fill="#251041"/>
    <path d="M87.8 34.5C83.6 34.5 80.6 35.9 78.6 38.8V34.5H69V69H78.6V53.5C78.9 46.8 81.6 43.6 87 43.6C89.1 43.6 91 44.2 92.4 45.2H92.8V35.8C91.8 35 90 34.5 87.8 34.5Z" fill="#251041"/>
    <path d="M231.7 61.2C226.5 61.2 222.9 57.3 222.9 51.7C222.9 46.1 226.5 42.2 231.7 42.2C236.8 42.2 240.4 46.1 240.4 51.7C240.4 57.3 236.8 61.2 231.7 61.2ZM231.7 33.7C220.8 33.7 213.2 41.1 213.2 51.7C213.2 62.2 220.8 69.7 231.7 69.7C242.5 69.7 250.1 62.2 250.1 51.7C250.1 41.1 242.5 33.7 231.7 33.7Z" fill="#251041"/>
    <path d="M274.7 34.5L267.7 45L260.5 34.5H249L261.3 51.2L248.2 69H259.4L267.2 57.4L274.9 69H286.5L273.5 51.2L285.8 34.5H274.7Z" fill="#251041"/>
    <path d="M151 61.2C145.8 61.2 142.2 57.3 142.2 51.7C142.2 46.1 145.8 42.2 151 42.2C156.1 42.2 159.7 46.1 159.7 51.7C159.8 57.3 156.2 61.2 151 61.2ZM159.8 17.6V37.4H159.7C157.4 35.1 154 33.7 149.8 33.7C140 33.7 132.9 41.3 132.9 51.7C132.9 62.1 140 69.7 149.8 69.7C154.1 69.7 157.5 68.3 159.9 65.8V69H161.5H169.5V17.6H159.8Z" fill="#251041"/>
    <path d="M191.8 61.2C186.7 61.2 183.1 57.3 183.1 51.7C183.1 46.1 186.7 42.2 191.8 42.2C197 42.2 200.6 46.1 200.6 51.7C200.7 57.3 197.1 61.2 191.8 61.2ZM193.2 33.7C188.9 33.7 185.6 35 183.3 37.4H183.2V17.6H173.6V69H181.6H183.2V65.8C185.5 68.3 188.9 69.7 193.3 69.7C203.1 69.7 210.2 62.1 210.2 51.7C210 41.3 202.9 33.7 193.2 33.7Z" fill="#251041"/>
    <path d="M34.5 69V34.5H0C0 53.5 15.4 69 34.5 69Z" fill="#FFA000"/>
    <path d="M69 34.5H34.5V0C53.5 0 69 15.4 69 34.5Z" fill="#8200FF"/>
    <path d="M34.5 0H0V34.5H34.5V0Z" fill="#FF2D00"/>
</svg>
